# xmcd
#
# Track frame offsets: 
#        150
#        16267
#        40450
#        58827
#        78990
#        104195
#        123107
#        142580
#        171702
#        188322
#
# Disc length: 2764 seconds
#
# Revision: 0
# Processed by: cddbd v1.5.2PL0 Copyright (c) Steve Scherf et al.
# Submitted via: ExactAudioCopy v0.99pb4
#
DISCID=810aca0a
DTITLE=Swiss Blues Authority - House of Mojo
DYEAR=2011
DGENRE=Blues
TTITLE0=House of Mojo
TTITLE1=I Hurt Everybody
TTITLE2=Snake In My Den
TTITLE3=Don't Make The Monkey Drunk
TTITLE4=My World
TTITLE5=All My Angels
TTITLE6=U Stoopid!
TTITLE7=Sing And Shout
TTITLE8=I Want Money
TTITLE9=Last Shirt
EXTD=
EXTT0=
EXTT1=
EXTT2=
EXTT3=
EXTT4=
EXTT5=
EXTT6=
EXTT7=
EXTT8=
EXTT9=
PLAYORDER=
